# xmcd
#
# Track frame offsets: 
#        150
#        18010
#        40210
#        53185
#        73360
#        88210
#        101485
#        112060
#        127435
#        147310
#        169510
#        189310
#        206860
#        227485
#        247810
#
# Disc length: 3515 seconds
#
# Revision: 1
# Processed by: cddbd v1.5.2PL0 Copyright (c) Steve Scherf et al.
# Submitted via: ExactAudioCopyFreeDBPlugin 1.0
#
DISCID=d80db90f
DTITLE=John Hammond - Rough and Tough
DYEAR=2009
DGENRE=Blues
TTITLE0=My Mind Is Ramblin'
TTITLE1=Still A Fool
TTITLE2=Up The Line
TTITLE3=My Time After Awhile
TTITLE4=Got To Find My Baby
TTITLE5=She's Tough
TTITLE6=Chattanooga Choo Choo
TTITLE7=Statesboro Blues
TTITLE8=I Can Tell
TTITLE9=Get Behind The Mule
TTITLE10=No Place To Go
TTITLE11=Slick Crown Vic
TTITLE12=Come To Find Out
TTITLE13=It Hurts Me Too
TTITLE14=I Can't Be Satisfied
EXTD=YEAR: 2009
EXTT0=
EXTT1=
EXTT2=
EXTT3=
EXTT4=
EXTT5=
EXTT6=
EXTT7=
EXTT8=
EXTT9=
EXTT10=
EXTT11=
EXTT12=
EXTT13=
EXTT14=
PLAYORDER=
